<svg width="95" height="126" xmlns="http://www.w3.org/2000/svg">
 <!-- Created with SVG Editor - http://github.com/mzalive/SVG Editor/ -->

 <g>
  <title>background</title>
  <rect fill="#26262b" id="canvas_background" height="128" width="97" y="-1" x="-1"/>
  <g display="none" overflow="visible" y="0" x="0" height="100%" width="100%" id="canvasGrid">
   <rect fill="url(#gridpattern)" stroke-width="0" y="0" x="0" height="100%" width="100%"/>
  </g>
 </g>
 <g>
  <title>Layer 1</title>
  <g stroke="null" id="svg_18">
   <circle stroke="null" transform="matrix(0.08115820399621043,0,0,0.08115820399621043,-41.551344279549085,-62.97804382681079) " id="svg_16" fill="#5865f2" r="512" cy="1693.266617" cx="1150.649749"/>
   <path stroke="null" id="svg_17" fill="#fff" d="m66.233223,61.215646a34.265805,34.265805 0 0 0 -8.458308,-2.623033a0.12823,0.12823 0 0 0 -0.136346,0.064115a23.869439,23.869439 0 0 0 -1.055057,2.163678a31.633845,31.633845 0 0 0 -9.499568,0a21.892426,21.892426 0 0 0 -1.069665,-2.163678a0.133099,0.133099 0 0 0 -0.136346,-0.064115a34.167604,34.167604 0 0 0 -8.455062,2.623033a0.120926,0.120926 0 0 0 -0.055999,0.047883c-5.38647,8.048459 -6.861926,15.898892 -6.137995,23.650312a0.142838,0.142838 0 0 0 0.054376,0.09739a34.45815,34.45815 0 0 0 10.376076,5.245255a0.134723,0.134723 0 0 0 0.146085,-0.047883a24.627457,24.627457 0 0 0 2.122287,-3.45247a0.131476,0.131476 0 0 0 -0.072231,-0.182606a22.691834,22.691834 0 0 1 -3.241459,-1.542006a0.133099,0.133099 0 0 1 -0.012985,-0.22075c0.217504,-0.162316 0.43582,-0.332749 0.643585,-0.504804a0.12823,0.12823 0 0 1 0.133911,-0.017855c6.800246,3.105113 14.162918,3.105113 20.882817,0a0.12823,0.12823 0 0 1 0.136346,0.016232c0.207765,0.171244 0.426081,0.343299 0.649266,0.506427a0.133099,0.133099 0 0 1 -0.011362,0.22075a21.293478,21.293478 0 0 1 -3.246328,1.542006a0.132288,0.132288 0 0 0 -0.070608,0.185041a27.652223,27.652223 0 0 0 2.120664,3.450847a0.131476,0.131476 0 0 0 0.146085,0.049507a34.343717,34.343717 0 0 0 10.38825,-5.245255a0.133099,0.133099 0 0 0 0.054376,-0.095767c0.86677,-8.963112 -1.451109,-16.74943 -6.143676,-23.651124a0.105506,0.105506 0 0 0 -0.05113,-0.05113zm-21.291043,18.978846c-2.047621,0 -3.733277,-1.879624 -3.733277,-4.187763s1.654004,-4.187763 3.733277,-4.187763c2.096316,0 3.767364,1.895856 3.733277,4.187763c0.001623,2.308139 -1.653193,4.187763 -3.733277,4.187763zm13.807445,0c-2.047621,0 -3.733277,-1.879624 -3.733277,-4.187763s1.654004,-4.187763 3.733277,-4.187763c2.096316,0 3.767364,1.895856 3.733277,4.187763c0.000812,2.308139 -1.636961,4.187763 -3.733277,4.187763z"/>
  </g>
 </g>
</svg>